# AST/ASF file generated using VICON BodyLanguage
# -----------------------------------------------
:version 1.10
:name VICON
:units
  mass 1.0
  length 0.45
  angle deg
:documentation
   .ast/.asf automatically generated from VICON data using
   VICON BodyBuilder and BodyLanguage model FoxedUp or BRILLIANT.MOD
:root
   order TX TY TZ RX RY RZ
   axis XYZ
   position 0 0 0  
   orientation 0 0 0 
:bonedata
  begin
     id 1 
     name lhipjoint
     direction 0.662698 -0.695252 0.27831 
     length 2.53073 
     axis 0 0 0  XYZ
  end
  begin
     id 2 
     name lfemur
     direction 0.34202 -0.939693 0  
     length 7.16147  
     axis 0 0 20  XYZ
    dof rx ry rz
    limits (-160.0 20.0)
           (-70.0 70.0)
           (-60.0 70.0)
  end
  begin
     id 3 
     name ltibia
     direction 0.34202 -0.939693 0   
     length 7.63967   
     axis 0 0 20   XYZ
    dof rx
    limits (-10.0 170.0)
  end
  begin
     id 4 
     name lfoot
     direction 0.0938457 -0.257721 0.961651   
     length 1.89793   
     axis -90 7.62852e-016 20   XYZ
    dof rx rz
    limits (-45.0 90.0)
           (-70.0 20.0)
  end
  begin
     id 5 
     name ltoes
     direction -0.00116841 -0.0030592 0.999995   
     length 0.955649   
     axis -90 7.62852e-016 20   XYZ
    dof rx
    limits (-90.0 20.0)
  end
  begin
     id 6 
     name rhipjoint
     direction -0.649445 -0.705948 0.282592   
     length 2.49238  
     axis 0 0 0  XYZ 
  end
  begin
     id 7 
     name rfemur
     direction -0.34202 -0.939693 0   
     length 6.90728   
     axis 0 0 -20   XYZ
    dof rx ry rz
    limits (-160.0 20.0)
           (-70.0 70.0)
           (-70.0 60.0)
  end
  begin
     id 8 
     name rtibia
     direction -0.34202 -0.939693 0   
     length 7.72868   
     axis 0 0 -20   XYZ
    dof rx
    limits (-10.0 170.0)
 end
 begin
     id 9 
     name rfoot
     direction -0.0920068 -0.252865 0.963117   
     length 1.97476  
     axis -90 -7.62852e-016 -20   XYZ
    dof rx rz
    limits (-45.0 90.0)
           (-20.0 70.0)
  end
  begin
     id 10 
     name rtoes
     direction 0.000391322 0.00230649 0.999997   
     length 0.992641   
     axis -90 -7.62852e-016 -20   XYZ
    dof rx
    limits (-90.0 20.0)
  end
  begin
     id 11 
     name lowerback
     direction -0.00875327 0.998321 -0.0572635   
     length 2.20024   
     axis 0 0 0   XYZ
    dof rx ry rz
    limits (-20.0 45.0)
           (-30.0 30.0)
           (-30.0 30.0)
  end
  begin
     id 12 
     name upperback
     direction 0.00753931 0.999972 -0.000360425   
     length 2.20538   
     axis 0 0 0   XYZ
    dof rx ry rz
    limits (-20.0 45.0)
           (-30.0 30.0)
           (-30.0 30.0)
  end
  begin
     id 13 
     name thorax
     direction 0.0117767 0.999601 0.0256663   
     length 2.21508   
     axis 0 0 0   XYZ
    dof rx ry rz
    limits (-20.0 45.0)
           (-30.0 30.0)
           (-30.0 30.0)
  end
  begin
     id 14 
     name lowerneck
     direction 0.060228 0.994909 0.0807986   
     length 1.7607   
     axis 0 0 0   XYZ
    dof rx ry rz
    limits (-20.0 45.0)
           (-30.0 30.0)
           (-30.0 30.0)
  end
  begin
     id 15 
     name upperneck
     direction -0.0563647 0.959594 -0.275685   
     length 1.75612   
     axis 0 0 0   XYZ
    dof rx ry rz
    limits (-20.0 45.0)
           (-30.0 30.0)
           (-30.0 30.0)
  end
  begin
     id 16
     name head
     direction -0.0161544 0.99458 -0.102714  
     length 1.79288  
     axis 0 0 0   XYZ
    dof rx ry rz
    limits (-20.0 45.0)
           (-30.0 30.0)
           (-30.0 30.0)
  end
  begin
     id 17 
     name lclavicle
     direction 0.93913 0.332189 -0.087669  
     length 3.52087  
     axis 0 0 0   XYZ
    dof ry rz
    limits (-20.0 10.0)
           (0.0 20.0)
  end
  begin
     id 18 
     name lhumerus
     direction 1 -4.48974e-011 -2.70836e-027   
     length 5.35289   
     axis -180 -30 -90   XYZ
    dof rx ry rz
    limits (-60.0 90.0)
           (-90.0 90.0)
           (-90.0 90.0)
  end
  begin
     id 19
     name lradius
     direction 1 -4.48961e-011 -9.76021e-027   
     length 3.27727   
     axis -180 -30 -90   XYZ
    dof rx
    limits (-10.0 170.0)
  end
  begin
     id 20
     name lwrist
     direction 1 -4.49103e-011 -2.23668e-026   
     length 1.63864   
     axis 1.44924e-014 90 90   XYZ
    dof ry
    limits (-180.0 0.0)
 end
  begin
     id 21 
     name lhand
     direction 1 3.0697e-005 0.000161777   
     length 0.54443   
     axis 2.85318e-014 90 90   XYZ
    dof rx rz
    limits (-90.0 90.0)
           (-45.0 45.0)
  end
  begin
     id 22 
     name lfingers
     direction 1 -4.49027e-011 -8.9447e-026   
     length 0.438912   
     axis 5.70628e-014 90 90   XYZ
    dof rx
    limits (0.0 90.0)
  end
  begin
     id 23
     name lthumb
     direction 0.707058 2.6516e-005 0.707156   
     length 0.630274   
     axis -90 45 -3.53137e-014   XYZ
    dof rx rz
    limits (-45.0 45.0)
           (-45.0 45.0)
  end
  begin
     id 24 
     name rclavicle
     direction -0.95274 0.284984 -0.105215   
     length 3.43401  
     axis 0 0 0   XYZ 
    dof ry rz
    limits (-10.0 20.0)
           (-20.0 0.0)
  end
  begin
     id 25 
     name rhumerus
     direction -0.999999 -0.000575019 -0.00106829  
     length 5.52077   
     axis -180 30 90   XYZ
    dof rx ry rz
    limits (-90.0 60.0)
           (-90.0 90.0)
           (-90.0 90.0)
  end
  begin
     id 26 
     name rradius
     direction -1 -4.4879e-011 -6.35415e-027   
     length 3.32364   
     axis -180 30 90   XYZ
    dof rx
    limits (-10.0 170.0)
  end
  begin
     id 27 
     name rwrist
     direction -1 -4.49048e-011 -9.98542e-027   
     length 1.66182   
     axis 6.32482e-015 -90 -90   XYZ
    dof ry
    limits (-180.0 0.0)
  end
  begin
     id 28
     name rhand
     direction -1 -4.48978e-011 -1.99771e-026   
     length 0.732235   
     axis 1.27479e-014 -90 -90   XYZ
    dof rx rz
    limits (-90.0 90.0)
           (-45.0 45.0)
  end
  begin
     id 29
     name rfingers
     direction -1 -4.49144e-011 -3.99245e-026   
     length 0.590347   
     axis 2.5496e-014 -90 -90   XYZ
    dof rx
    limits (0.0 90.0)
  end
  begin
     id 30
     name rthumb
     direction -0.707107 -6.35121e-011 0.707107   
     length 0.847624   
     axis -90 -45 -2.82974e-014   XYZ
    dof rx rz
    limits (-45.0 45.0)
           (-45.0 45.0)
  end
:hierarchy
  begin
    root lhipjoint rhipjoint lowerback
    lhipjoint lfemur
    lfemur ltibia
    ltibia lfoot
    lfoot ltoes
    rhipjoint rfemur
    rfemur rtibia
    rtibia rfoot
    rfoot rtoes
    lowerback upperback
    upperback thorax
    thorax lowerneck lclavicle rclavicle
    lowerneck upperneck
    upperneck head
    lclavicle lhumerus
    lhumerus lradius
    lradius lwrist
    lwrist lhand lthumb
    lhand lfingers
    rclavicle rhumerus
    rhumerus rradius
    rradius rwrist
    rwrist rhand rthumb
    rhand rfingers
  end

#!OML:ASF G:\Work\Work\Patient Classification 1\Elijah\terrain1\Elijah.ASF
:FULLY-SPECIFIED
:DEGREES
1141
root 5.95868 21.556 -2.41143 185.246 -10.0063 183.64
lowerback 7.74179 1.198 1.78748
upperback 3.02362 1.53197 1.08443
thorax -1.19605 0.679076 -0.0167746
lowerneck -13.9683 12.5659 19.1072
upperneck 23.3192 16.7856 -16.4771
head 13.3627 7.2322 -6.66061
rclavicle -2.5491e-014 5.96354e-015
rhumerus -37.1031 5.52336 -85.4809
rradius 33.4171
rwrist 1.90447
rhand -11.8065 21.9159
rfingers 7.12502
rthumb 14.2434 -7.57567
lclavicle -2.5491e-014 5.96354e-015
lhumerus -41.9601 5.57027 78.7906
lradius 37.8793
lwrist 12.1687
lhand -17.7049 24.2528
lfingers 7.12502
lthumb 8.55512 54.0595
rfemur -22.7285 -6.71599 33.9039
rtibia 39.4588
rfoot -25.4432 -8.46566
rtoes -9.45936
lfemur -43.6123 12.4113 -15.7893
ltibia 76.3177
lfoot -8.45751 -10.4061
ltoes -14.9663
1142
root 5.94291 21.5642 -2.48209 185.173 -9.82523 183.658
lowerback 7.83664 1.19224 2.14158
upperback 2.92834 1.55884 1.01153
thorax -1.334 0.695143 -0.29551
lowerneck -14.519 12.6745 18.6467
upperneck 23.8854 16.8687 -15.9178
head 13.6114 7.24419 -6.33832
rclavicle -9.74977e-015 -8.95773e-015
rhumerus -37.6308 5.1046 -85.3478
rradius 33.5199
rwrist 2.19781
rhand -12.2618 22.0875
rfingers 7.12502
rthumb 13.8047 -7.43446
lclavicle -9.74977e-015 -8.95773e-015
lhumerus -42.2537 5.10059 78.69
lradius 37.7343
lwrist 12.2325
lhand -17.8329 23.14
lfingers 7.12502
lthumb 8.43163 52.9517
rfemur -22.2922 -6.80989 33.8597
rtibia 39.3912
rfoot -25.6473 -8.38551
rtoes -10.0095
lfemur -44.1034 12.4094 -16.315
ltibia 75.5892
lfoot -8.72205 -9.44217
ltoes -17.2349
1143
root 5.92313 21.5609 -2.55704 185.128 -9.58463 183.634
lowerback 7.99056 1.19112 2.37643
upperback 2.78879 1.58946 1.00346
thorax -1.55531 0.711003 -0.443009
lowerneck -13.1565 12.5083 19.6734
upperneck 23.2519 16.7528 -16.8106
head 13.2632 7.26726 -6.93222
rclavicle 5.58461e-015 1.89529e-014
rhumerus -38.0435 5.05893 -85.1629
rradius 33.4413
rwrist 2.09664
rhand -12.9797 22.6888
rfingers 7.12502
rthumb 13.1128 -6.87892
lclavicle 5.58461e-015 1.89529e-014
lhumerus -42.9453 4.48854 78.8575
lradius 38.1008
lwrist 12.5647
lhand -17.9023 23.6867
lfingers 7.12502
lthumb 8.36463 53.5011
rfemur -21.9518 -6.86988 33.7495
rtibia 39.4765
rfoot -25.9629 -8.19711
rtoes -10.1865
lfemur -44.4935 12.3716 -16.8489
ltibia 74.7881
lfoot -8.76012 -8.97672
ltoes -16.7149
1144
root 5.90662 21.5493 -2.61992 185.199 -9.32832 183.652
lowerback 8.12878 1.17919 2.56393
upperback 2.7493 1.59238 1.09399
thorax -1.66935 0.709572 -0.458403
lowerneck -12.6686 12.4466 19.8817
upperneck 23.1454 16.6821 -16.8388
head 13.128 7.2782 -7.00791
rclavicle 2.05494e-014 -4.12478e-015
rhumerus -38.1041 5.28565 -84.9133
rradius 33.3733
rwrist 1.68912
rhand -13.1338 22.9588
rfingers 7.12502
rthumb 12.9642 -6.61846
lclavicle 2.05494e-014 -4.12478e-015
lhumerus -43.2984 4.40789 78.9498
lradius 38.175
lwrist 12.5448
lhand -17.7753 22.287
lfingers 7.12502
lthumb 8.48722 52.0965
rfemur -21.8596 -6.76886 33.7287
rtibia 39.6671
rfoot -26.2701 -8.04515
rtoes -9.91689
lfemur -45.0978 12.2787 -17.3198
ltibia 73.9178
lfoot -8.55667 -8.86402
ltoes -14.3841
1145
root 5.88866 21.5253 -2.67605 185.34 -9.05464 183.638
lowerback 8.13474 1.18108 2.70122
upperback 2.78118 1.60044 1.18283
thorax -1.63778 0.71135 -0.444144
lowerneck -13.5516 12.5941 19.0539
upperneck 23.4789 16.8854 -16.4188
head 13.3521 7.28572 -6.6322
rclavicle 4.34344e-014 -6.95746e-015
rhumerus -38.1195 5.59393 -84.7354
rradius 33.4896
rwrist 1.15853
rhand -13.333 22.8945
rfingers 7.12502
rthumb 12.7722 -6.69483
lclavicle 4.34344e-014 -6.95746e-015
lhumerus -43.3601 4.53771 78.9378
lradius 37.9484
lwrist 12.3302
lhand -17.6145 20.4613
lfingers 7.12502
lthumb 8.64238 50.2644
rfemur -21.9183 -6.70418 33.6933
rtibia 39.9148
rfoot -26.3625 -7.86369
rtoes -9.80831
lfemur -45.8241 12.2049 -17.891
ltibia 72.9997
lfoot -8.36349 -8.7214
ltoes -13.6754
1146
root 5.8629 21.5182 -2.74733 185.395 -8.739 183.497
lowerback 8.09753 1.2077 2.87128
upperback 2.85155 1.63935 1.15481
thorax -1.53719 0.730602 -0.570004
lowerneck -12.4211 12.4365 20.0703
upperneck 22.8543 16.7378 -17.1841
head 13.0336 7.30396 -7.16636
rclavicle 8.69683e-016 -5.36719e-015
rhumerus -38.172 5.67883 -84.5572
rradius 33.6828
rwrist 0.667655
rhand -13.3958 22.6723
rfingers 7.12502
rthumb 12.7116 -6.92079
lclavicle 8.69683e-016 -5.36719e-015
lhumerus -43.4659 4.27196 79.0607
lradius 38.3036
lwrist 12.1798
lhand -16.9523 23.3874
lfingers 7.12502
lthumb 9.28134 53.1631
rfemur -21.7745 -6.87402 33.4441
rtibia 40.1475
rfoot -26.4016 -7.56476
rtoes -10.4086
lfemur -46.1154 12.0757 -18.5826
ltibia 71.9116
lfoot -8.26851 -8.56803
ltoes -13.976
1147
root 5.83863 21.5286 -2.83197 185.296 -8.37676 183.508
lowerback 8.05957 1.22873 3.17605
upperback 3.00446 1.6702 1.15824
thorax -1.34724 0.744673 -0.736775
lowerneck -12.8941 12.6122 19.8293
upperneck 22.9826 16.9701 -17.0694
head 13.1976 7.37221 -7.01302
rclavicle -9.59136e-015 1.16289e-014
rhumerus -38.2343 5.60452 -84.3369
rradius 34.008
rwrist 0.518086
rhand -13.2146 22.4161
rfingers 7.12502
rthumb 12.8863 -7.16609
lclavicle -9.59136e-015 1.16289e-014
lhumerus -43.435 4.06597 79.1392
lradius 37.8409
lwrist 12.3971
lhand -17.2034 21.9627
lfingers 7.12502
lthumb 9.03905 51.749
rfemur -21.3856 -7.01383 33.3365
rtibia 40.3585
rfoot -26.5512 -7.41055
rtoes -11.7544
lfemur -46.0675 11.936 -18.9584
ltibia 70.6993
lfoot -8.24342 -8.78199
ltoes -14.7263
1148
root 5.83599 21.5132 -2.90044 185.253 -8.16971 183.822
lowerback 8.28629 1.17806 3.43437
upperback 2.90602 1.63501 1.3382
thorax -1.57254 0.720949 -0.698829
lowerneck -12.806 12.6376 19.8197
upperneck 22.9683 17.0397 -17.1476
head 13.1988 7.39537 -7.0325
rclavicle 4.27387e-015 5.36719e-015
rhumerus -38.5563 5.6472 -84.1682
rradius 34.2617
rwrist 0.513897
rhand -12.9398 22.3249
rfingers 7.12502
rthumb 13.1512 -7.24041
lclavicle 4.27387e-015 5.36719e-015
lhumerus -43.6266 4.11102 79.102
lradius 37.2361
lwrist 12.2027
lhand -17.6132 20.4749
lfingers 7.12502
lthumb 8.64365 50.278
rfemur -21.2503 -6.79436 33.7183
rtibia 40.6001
rfoot -26.8827 -7.56329
rtoes -11.9218
lfemur -46.3611 11.7617 -18.8658
ltibia 69.5196
lfoot -7.82458 -9.40859
ltoes -15.2834
1149
root 5.8274 21.4835 -2.97319 185.209 -7.64949 183.99
lowerback 8.48587 1.24914 3.52428
upperback 2.79829 1.75112 1.47271
thorax -1.79124 0.773281 -0.627041
lowerneck -12.6632 12.7992 20.1032
upperneck 23.2833 17.2542 -17.1487
head 13.3827 7.51075 -7.05401
rclavicle 1.16786e-014 2.78299e-015
rhumerus -38.7106 5.86253 -84.0142
rradius 34.1816
rwrist 0.161425
rhand -12.7944 22.552
rfingers 7.12502
rthumb 13.2913 -7.00419
lclavicle 1.16786e-014 2.78299e-015
lhumerus -43.9971 4.02123 79.1212
lradius 36.978
lwrist 12.0851
lhand -17.898 20.1108
lfingers 7.12502
lthumb 8.36876 49.925
rfemur -21.119 -6.40935 33.8879
rtibia 40.9195
rfoot -27.2368 -7.55551
rtoes -11.0384
lfemur -46.4809 11.7555 -18.9138
ltibia 68.2821
lfoot -7.25276 -9.8141
ltoes -15.5905
1150
root 5.80083 21.4698 -3.05524 185.303 -7.12306 183.731
lowerback 8.18776 1.3335 3.44307
upperback 2.95909 1.82925 1.46462
thorax -1.45976 0.815414 -0.588
lowerneck -12.1586 12.8468 20.8117
upperneck 22.6615 17.4776 -18.1851
head 13.2916 7.60556 -7.54816
rclavicle -1.95306e-014 2.76311e-014
rhumerus -38.2971 6.36895 -83.8483
rradius 33.8862
rwrist -0.322638
rhand -12.867 22.8318
rfingers 7.12502
rthumb 13.2214 -6.72896
lclavicle -1.95306e-014 2.76311e-014
lhumerus -44.0781 3.78205 79.3452
lradius 37.1083
lwrist 12.1904
lhand -17.8507 21.3431
lfingers 7.12502
lthumb 8.41445 51.1555
rfemur -21.0298 -6.44716 33.483
rtibia 41.306
rfoot -27.2583 -7.39407
rtoes -10.9311
lfemur -46.3941 11.6022 -19.5149
ltibia 66.8693
lfoot -6.78216 -10.0047
ltoes -16.0766
1151
root 5.7862 21.4546 -3.13293 185.4 -7.23767 183.538
lowerback 7.92345 1.15416 3.35128
upperback 2.99696 1.57159 1.52835
thorax -1.28806 0.689292 -0.442037
lowerneck -12.8458 13.2227 20.4288
upperneck 23.2517 17.9746 -17.8307
head 13.7125 7.77121 -7.22231
rclavicle 3.94091e-014 3.43897e-014
rhumerus -38.2571 6.91226 -83.7374
rradius 33.9328
rwrist -0.614921
rhand -12.6614 22.7226
rfingers 7.12502
rthumb 13.4196 -6.82512
lclavicle 3.94091e-014 3.43897e-014
lhumerus -44.3489 3.71645 79.4657
lradius 37.2943
lwrist 12.0948
lhand -17.7443 22.9498
lfingers 7.12502
lthumb 8.51714 52.758
rfemur -21.0263 -6.80912 33.2625
rtibia 41.7395
rfoot -27.2921 -7.42379
rtoes -11.3378
lfemur -46.3607 10.9571 -19.9599
ltibia 65.3874
lfoot -5.98201 -10.4093
ltoes -15.7626
1152
root 5.77356 21.4378 -3.21894 185.35 -6.68849 183.718
lowerback 7.84692 1.18027 3.44907
upperback 2.81347 1.62773 1.65079
thorax -1.43427 0.717283 -0.376125
lowerneck -11.6802 13.296 21.2837
upperneck 22.9384 18.2232 -18.5315
head 13.6005 7.94699 -7.64053
rclavicle 1.3418e-015 7.95139e-016
rhumerus -38.947 7.02681 -83.6034
rradius 34.4578
rwrist -0.512109
rhand -12.2713 22.4228
rfingers 7.12502
rthumb 13.7955 -7.09979
lclavicle 1.3418e-015 7.95139e-016
lhumerus -45.0364 3.77807 79.3699
lradius 37.1475
lwrist 11.6594
lhand -17.5836 23.8761
lfingers 7.12502
lthumb 8.67216 53.678
rfemur -20.8081 -6.50041 33.394
rtibia 42.1128
rfoot -27.353 -7.39298
rtoes -12.3357
lfemur -46.0898 10.8895 -19.8945
ltibia 63.8975
lfoot -4.9896 -10.8084
ltoes -14.7459
1153
root 5.75512 21.4133 -3.30631 185.304 -6.1803 183.776
lowerback 7.71323 1.23906 3.53525
upperback 2.93033 1.68979 1.76571
thorax -1.23794 0.745992 -0.306779
lowerneck -11.1277 13.1471 21.6051
upperneck 22.7596 18.0357 -18.6536
head 13.4172 7.91673 -7.80371
rclavicle 1.67973e-014 -1.15295e-014
rhumerus -38.7574 7.22579 -83.3505
rradius 34.5354
rwrist -0.354324
rhand -12.28 22.52
rfingers 7.12502
rthumb 13.7872 -7.00319
lclavicle 1.67973e-014 -1.15295e-014
lhumerus -45.0097 4.04916 79.3644
lradius 36.4768
lwrist 11.2754
lhand -17.5841 23.6716
lfingers 7.12502
lthumb 8.67172 53.4735
rfemur -20.581 -6.42735 33.3629
rtibia 42.4627
rfoot -27.4931 -7.21291
rtoes -12.9811
lfemur -45.6989 10.7267 -19.9403
ltibia 62.3705
lfoot -3.97377 -11.1412
ltoes -14.0435
1154
root 5.72809 21.391 -3.40358 185.196 -5.84438 183.718
lowerback 7.46516 1.20634 3.68704
upperback 3.07496 1.62903 1.77124
thorax -0.948109 0.717869 -0.37374
lowerneck -11.6042 13.3885 21.3577
upperneck 22.9854 18.3626 -18.5278
head 13.6486 8.01776 -7.62371
rclavicle -2.34566e-014 -2.26615e-014
rhumerus -38.4139 7.76287 -83.3373
rradius 34.1707
rwrist -0.469433
rhand -12.3554 22.6296
rfingers 7.12502
rthumb 13.7145 -6.89843
lclavicle -2.34566e-014 -2.26615e-014
lhumerus -45.1347 4.16152 79.3083
lradius 35.936
lwrist 11.1897
lhand -17.9014 22.6126
lfingers 7.12502
lthumb 8.36549 52.427
rfemur -20.2539 -6.78746 33.1632
rtibia 42.8551
rfoot -27.8311 -6.75037
rtoes -12.5568
lfemur -45.0806 10.3451 -20.0722
ltibia 60.8085
lfoot -3.09565 -11.4996
ltoes -13.9384
1155
root 5.70514 21.3849 -3.48966 185.107 -5.58045 183.638
lowerback 7.38993 1.17029 3.80408
upperback 3.15612 1.57418 1.78762
thorax -0.820965 0.690508 -0.415365
lowerneck -11.67 13.5352 21.3335
upperneck 23.0455 18.5889 -18.5455
head 13.7458 8.10623 -7.57377
rclavicle -1.12313e-014 -7.95139e-015
rhumerus -38.3318 7.88348 -83.1161
rradius 34.2485
rwrist -0.355373
rhand -11.6238 21.9527
rfingers 7.12502
rthumb 14.4195 -7.52639
lclavicle -1.12313e-014 -7.95139e-015
lhumerus -45.3546 4.07286 79.3423
lradius 35.8257
lwrist 10.9624
lhand -17.9371 21.7042
lfingers 7.12502
lthumb 8.33108 51.5199
rfemur -20.018 -7.10336 32.9768
rtibia 43.2832
rfoot -28.1464 -6.44376
rtoes -12.1057
lfemur -44.493 9.84257 -20.1785
ltibia 59.1801
lfoot -2.1809 -11.7548
ltoes -14.8608
